# xmcd
#
# Track frame offsets: 
#        150
#        17484
#        35932
#        55166
#        74256
#        93016
#        111182
#        130214
#        149077
#        169872
#        188752
#        210467
#        230240
#        244880
#        261305
#        279020
#        296251
#        315832
#        326086
#        340525
#
# Disc length: 4749 seconds
#
# Revision: 0
# Processed by: cddbd v1.5.2PL0 Copyright (c) Steve Scherf et al.
# Submitted via: ExactAudioCopyFreeDBPlugin 1.0
#
DISCID=25128b14
DTITLE=Various Artist - The very best of Black Flavour Club 1
DYEAR=2016
DGENRE=No, thanks.
TTITLE0=Wu-Tang Clan - Gravel Pit (Radio Version)
TTITLE1=Fugees - Fu-Gee-La
TTITLE2=Xzibit - X
TTITLE3=Blackstreet - No Diggity (Radio Version)
TTITLE4=Warren G. - Regulate
TTITLE5=Dru Hill - In My Bed (So So Def Mix)
TTITLE6=Luniz - I Got 5 On It
TTITLE7=Ginuwine - Pony
TTITLE8=Montell Jordan - This Is How We Do It
TTITLE9=Sisqo - Thong Song
TTITLE10=LL Cool J - Mama Said Knock You Out
TTITLE11=Naughty By Nature - Hip Hop Hooray
TTITLE12=Kris Kross - Jump
TTITLE13=House Of Pain - Jump Around
TTITLE14=The Sugarhill Gang - Rapper's Delight (Single Version)
TTITLE15=Vanilla Ice - Ice Ice Baby (Radio Edit)
TTITLE16=N.W.A. - Express Yourself
TTITLE17=Method Man and Redman - Da Rockwilder
TTITLE18=Grandmaster Flash - The Message
TTITLE19=Beastie Boys - Fight For Your Right
EXTD=
EXTT0=
EXTT1=
EXTT2=
EXTT3=
EXTT4=
EXTT5=
EXTT6=
EXTT7=
EXTT8=
EXTT9=
EXTT10=
EXTT11=
EXTT12=
EXTT13=
EXTT14=
EXTT15=
EXTT16=
EXTT17=
EXTT18=
EXTT19=
PLAYORDER=
